<svg width="36" height="36" viewBox="0 0 36 36" fill="none" xmlns="http://www.w3.org/2000/svg">
<path d="M18.0001 4.25C14.8528 4.24639 11.7702 5.14353 9.11643 6.83547C6.46261 8.5274 4.34841 10.9435 3.02352 13.7983C1.69862 16.6531 1.21838 19.8275 1.63951 22.9465C2.06064 26.0654 3.36554 28.9988 5.40011 31.4L5.70011 31.75H30.3001L30.6001 31.4C32.6347 28.9988 33.9396 26.0654 34.3607 22.9465C34.7818 19.8275 34.3016 16.6531 32.9767 13.7983C31.6518 10.9435 29.5376 8.5274 26.8838 6.83547C24.23 5.14353 21.1474 4.24639 18.0001 4.25V4.25ZM26.6001 13.73L20.6801 19.54C20.9827 20.1797 21.0494 20.9057 20.8685 21.5898C20.6875 22.274 20.2706 22.8721 19.6913 23.2785C19.1121 23.685 18.4078 23.8736 17.7029 23.811C16.9981 23.7484 16.338 23.4387 15.8394 22.9366C15.3408 22.4344 15.0357 21.7722 14.9782 21.0669C14.9206 20.3616 15.1141 19.6587 15.5247 19.0823C15.9352 18.5059 16.5363 18.0932 17.2216 17.9171C17.907 17.7411 18.6326 17.8129 19.2701 18.12L25.1801 12.31L26.6001 13.73ZM3.60011 19.9H7.00011V21.9H3.56011C3.56011 21.51 3.51011 21.13 3.51011 20.73C3.51011 20.33 3.53011 20.18 3.55011 19.9H3.60011ZM8.48011 9.9L10.9401 12.36L9.47011 13.74L7.00011 11.29C7.44343 10.7842 7.92124 10.3098 8.43011 9.87L8.48011 9.9ZM19.0001 9.79H17.0001V6.29H18.0001C18.3701 6.29 18.7001 6.29 19.0001 6.34V9.79ZM32.4901 20.74C32.4901 21.13 32.4901 21.53 32.4401 21.91H28.9201V19.91H32.4501C32.4701 20.18 32.4901 20.46 32.4901 20.74V20.74Z" fill="black"/>
</svg>
