<svg xmlns="http://www.w3.org/2000/svg" width="110" height="48" viewBox="0 0 110 48">
  <g id="LOGO" transform="translate(-1948 737)">
    <g id="Groupe_1" data-name="Groupe 1" transform="translate(964 -1262)">
      <path id="tree-solid" d="M18.42,18.417l-3.889-4.4h1.491a1.106,1.106,0,0,0,1.012-.636,1.073,1.073,0,0,0-.16-1.171l-3.8-4.424H14.48a1.1,1.1,0,0,0,1.015-.663,1.083,1.083,0,0,0-.206-1.172L9.918.228a.8.8,0,0,0-1.135,0L3.415,5.947a1.084,1.084,0,0,0-.206,1.172,1.1,1.1,0,0,0,1.016.663H5.63l-3.8,4.425a1.075,1.075,0,0,0-.159,1.17,1.106,1.106,0,0,0,1.012.635H4.17l-3.889,4.4A1.076,1.076,0,0,0,.108,19.6a1.129,1.129,0,0,0,1.023.645H7.793v1.19L6.318,23.789a.779.779,0,0,0,.7,1.127h4.671a.779.779,0,0,0,.7-1.127l-1.474-2.356v-1.19H17.57a1.129,1.129,0,0,0,1.023-.645,1.076,1.076,0,0,0-.173-1.181Z" transform="translate(1031.65 536.084)"/>
      <text id="Shop" transform="translate(984 546)" fill="#0a0a0a" font-size="20" font-family="Poppins-Bold, Poppins" font-weight="700"><tspan x="0" y="0">S</tspan><tspan y="0" fill="#0f0f0f">h</tspan><tspan y="0" fill="#fe43f2">op</tspan></text>
      <text id="Now" transform="translate(1048 566)" fill="#fe43f2" font-size="20" font-family="Poppins-Bold, Poppins" font-weight="700"><tspan x="0" y="0">N</tspan><tspan y="0" fill="#000">ow</tspan></text>
    </g>
    <line id="Line_1" data-name="Line 1" x2="52" transform="translate(2005 -726)" fill="none" stroke="#000" stroke-width="1"/>
    <line id="Line_2" data-name="Line 2" y2="19" transform="translate(2056.5 -726)" fill="none" stroke="#000" stroke-width="1"/>
    <path id="Path_18" data-name="Path 18" d="M0,0H53.6" transform="translate(1948.896 -701.5)" fill="none" stroke="#000" stroke-width="1"/>
    <line id="Line_3" data-name="Line 3" y2="19" transform="translate(1949 -720)" fill="none" stroke="#000" stroke-width="1"/>
  </g>
</svg>
